# xmcd CD database file
#
# Track frame offsets:
#	150
#	33847
#	54130
#	85347
#	118087
#	133207
#	187795
#
# Disc length: 3046 seconds
#
# Revision: 1
# Processed by: cddbd v1.5.1PL0 Copyright (c) Steve Scherf et al.
# Submitted via: CDex 1.51
#
DISCID=520be407
DTITLE=Four Minus One - Split Decision
DYEAR=2002
DGENRE=Jazz
TTITLE0=Augletuation
TTITLE1=Down n Dirty
TTITLE2=Salaam and Dharmsala
TTITLE3=Breathe
TTITLE4=Facets
TTITLE5=One for Johnny
TTITLE6=Split Decision
EXTD=YEAR: 2002
EXTT0=
EXTT1=
EXTT2=
EXTT3=
EXTT4=
EXTT5=
EXTT6=
PLAYORDER=
